<svg xmlns="http://www.w3.org/2000/svg" xmlns:xlink="http://www.w3.org/1999/xlink" contentStyleType="text/css" data-diagram-type="MINDMAP" height="1204px" preserveAspectRatio="none" style="width:899px;height:1204px;background:#FFFFFF;" version="1.1" viewBox="0 0 899 1204" width="899px" zoomAndPan="magnify"><defs/><g><rect fill="#F1F1F1" height="36.2969" rx="12.5" ry="12.5" style="stroke:#181818;stroke-width:1.5;" width="133.9482" x="10" y="582.9688"/><text fill="#000000" font-family="sans-serif" font-size="14" lengthAdjust="spacing" textLength="113.9482" x="20" y="605.9639">Devices Domain</text><rect fill="#F1F1F1" height="36.2969" rx="12.5" ry="12.5" style="stroke:#181818;stroke-width:1.5;" width="152.3301" x="193.9482" y="273.3359"/><text fill="#000000" font-family="sans-serif" font-size="14" lengthAdjust="spacing" textLength="132.3301" x="203.9482" y="296.3311">Hardware platform</text><rect fill="#F1F1F1" height="36.2969" rx="12.5" ry="12.5" style="stroke:#181818;stroke-width:1.5;" width="74.4209" x="396.2783" y="20"/><text fill="#000000" font-family="sans-serif" font-size="14" lengthAdjust="spacing" textLength="54.4209" x="406.2783" y="42.9951">Arduino</text><path d="M346.2783,291.4844 L356.2783,291.4844 C371.2783,291.4844 371.2783,38.1484 386.2783,38.1484 L396.2783,38.1484 " fill="#FFFFFF" fill-opacity="0.00000" style="stroke:#181818;stroke-width:1;"/><rect fill="#F1F1F1" height="36.2969" rx="12.5" ry="12.5" style="stroke:#181818;stroke-width:1.5;" width="93.9238" x="396.2783" y="76.2969"/><text fill="#000000" font-family="sans-serif" font-size="14" lengthAdjust="spacing" textLength="73.9238" x="406.2783" y="99.292">Raspery Pi</text><path d="M346.2783,291.4844 L356.2783,291.4844 C371.2783,291.4844 371.2783,94.4453 386.2783,94.4453 L396.2783,94.4453 " fill="#FFFFFF" fill-opacity="0.00000" style="stroke:#181818;stroke-width:1;"/><rect fill="#F1F1F1" height="36.2969" rx="12.5" ry="12.5" style="stroke:#181818;stroke-width:1.5;" width="136.5049" x="396.2783" y="132.5938"/><text fill="#000000" font-family="sans-serif" font-size="14" lengthAdjust="spacing" textLength="116.5049" x="406.2783" y="155.5889">Intel Galileo Gen</text><path d="M346.2783,291.4844 L356.2783,291.4844 C371.2783,291.4844 371.2783,150.7422 386.2783,150.7422 L396.2783,150.7422 " fill="#FFFFFF" fill-opacity="0.00000" style="stroke:#181818;stroke-width:1;"/><rect fill="#F1F1F1" height="36.2969" rx="12.5" ry="12.5" style="stroke:#181818;stroke-width:1.5;" width="101.7988" x="396.2783" y="188.8906"/><text fill="#000000" font-family="sans-serif" font-size="14" lengthAdjust="spacing" textLength="81.7988" x="406.2783" y="211.8857">Intel Edison</text><path d="M346.2783,291.4844 L356.2783,291.4844 C371.2783,291.4844 371.2783,207.0391 386.2783,207.0391 L396.2783,207.0391 " fill="#FFFFFF" fill-opacity="0.00000" style="stroke:#181818;stroke-width:1;"/><rect fill="#F1F1F1" height="36.2969" rx="12.5" ry="12.5" style="stroke:#181818;stroke-width:1.5;" width="145.4531" x="396.2783" y="245.1875"/><text fill="#000000" font-family="sans-serif" font-size="14" lengthAdjust="spacing" textLength="125.4531" x="406.2783" y="268.1826">Beaglebone Black</text><path d="M346.2783,291.4844 L356.2783,291.4844 C371.2783,291.4844 371.2783,263.3359 386.2783,263.3359 L396.2783,263.3359 " fill="#FFFFFF" fill-opacity="0.00000" style="stroke:#181818;stroke-width:1;"/><rect fill="#F1F1F1" height="36.2969" rx="12.5" ry="12.5" style="stroke:#181818;stroke-width:1.5;" width="91.292" x="396.2783" y="301.4844"/><text fill="#000000" font-family="sans-serif" font-size="14" lengthAdjust="spacing" textLength="71.292" x="406.2783" y="324.4795">Broadcom</text><path d="M346.2783,291.4844 L356.2783,291.4844 C371.2783,291.4844 371.2783,319.6328 386.2783,319.6328 L396.2783,319.6328 " fill="#FFFFFF" fill-opacity="0.00000" style="stroke:#181818;stroke-width:1;"/><rect fill="#F1F1F1" height="36.2969" rx="12.5" ry="12.5" style="stroke:#181818;stroke-width:1.5;" width="83.6631" x="396.2783" y="357.7813"/><text fill="#000000" font-family="sans-serif" font-size="14" lengthAdjust="spacing" textLength="63.6631" x="406.2783" y="380.7764">Netduino</text><path d="M346.2783,291.4844 L356.2783,291.4844 C371.2783,291.4844 371.2783,375.9297 386.2783,375.9297 L396.2783,375.9297 " fill="#FFFFFF" fill-opacity="0.00000" style="stroke:#181818;stroke-width:1;"/><rect fill="#F1F1F1" height="36.2969" rx="12.5" ry="12.5" style="stroke:#181818;stroke-width:1.5;" width="66.1631" x="396.2783" y="414.0781"/><text fill="#000000" font-family="sans-serif" font-size="14" lengthAdjust="spacing" textLength="46.1631" x="406.2783" y="437.0732">Flutter</text><path d="M346.2783,291.4844 L356.2783,291.4844 C371.2783,291.4844 371.2783,432.2266 386.2783,432.2266 L396.2783,432.2266 " fill="#FFFFFF" fill-opacity="0.00000" style="stroke:#181818;stroke-width:1;"/><rect fill="#F1F1F1" height="36.2969" rx="12.5" ry="12.5" style="stroke:#181818;stroke-width:1.5;" width="71.0918" x="396.2783" y="470.375"/><text fill="#000000" font-family="sans-serif" font-size="14" lengthAdjust="spacing" textLength="51.0918" x="406.2783" y="493.3701">Marvell</text><path d="M346.2783,291.4844 L356.2783,291.4844 C371.2783,291.4844 371.2783,488.5234 386.2783,488.5234 L396.2783,488.5234 " fill="#FFFFFF" fill-opacity="0.00000" style="stroke:#181818;stroke-width:1;"/><rect fill="#F1F1F1" height="36.2969" rx="12.5" ry="12.5" style="stroke:#181818;stroke-width:1.5;" width="89.2617" x="396.2783" y="526.6719"/><text fill="#000000" font-family="sans-serif" font-size="14" lengthAdjust="spacing" textLength="69.2617" x="406.2783" y="549.667">Particle.io</text><path d="M346.2783,291.4844 L356.2783,291.4844 C371.2783,291.4844 371.2783,544.8203 386.2783,544.8203 L396.2783,544.8203 " fill="#FFFFFF" fill-opacity="0.00000" style="stroke:#181818;stroke-width:1;"/><path d="M143.9482,601.1172 L153.9482,601.1172 C168.9482,601.1172 168.9482,291.4844 183.9482,291.4844 L193.9482,291.4844 " fill="#FFFFFF" fill-opacity="0.00000" style="stroke:#181818;stroke-width:1;"/><rect fill="#F1F1F1" height="36.2969" rx="12.5" ry="12.5" style="stroke:#181818;stroke-width:1.5;" width="150.1426" x="193.9482" y="751.8594"/><text fill="#000000" font-family="sans-serif" font-size="14" lengthAdjust="spacing" textLength="130.1426" x="203.9482" y="774.8545">Embedded objects</text><rect fill="#F1F1F1" height="36.2969" rx="12.5" ry="12.5" style="stroke:#181818;stroke-width:1.5;" width="146.1025" x="394.0908" y="582.9688"/><text fill="#000000" font-family="sans-serif" font-size="14" lengthAdjust="spacing" textLength="126.1025" x="404.0908" y="605.9639">Embedded sensor</text><path d="M344.0908,770.0078 L354.0908,770.0078 C369.0908,770.0078 369.0908,601.1172 384.0908,601.1172 L394.0908,601.1172 " fill="#FFFFFF" fill-opacity="0.00000" style="stroke:#181818;stroke-width:1;"/><rect fill="#F1F1F1" height="36.2969" rx="12.5" ry="12.5" style="stroke:#181818;stroke-width:1.5;" width="87.3203" x="394.0908" y="639.2656"/><text fill="#000000" font-family="sans-serif" font-size="14" lengthAdjust="spacing" textLength="67.3203" x="404.0908" y="662.2607">Actuators</text><path d="M344.0908,770.0078 L354.0908,770.0078 C369.0908,770.0078 369.0908,657.4141 384.0908,657.4141 L394.0908,657.4141 " fill="#FFFFFF" fill-opacity="0.00000" style="stroke:#181818;stroke-width:1;"/><rect fill="#F1F1F1" height="36.2969" rx="12.5" ry="12.5" style="stroke:#181818;stroke-width:1.5;" width="120.4063" x="394.0908" y="695.5625"/><text fill="#000000" font-family="sans-serif" font-size="14" lengthAdjust="spacing" textLength="100.4063" x="404.0908" y="718.5576">RFID/NFC tags</text><path d="M344.0908,770.0078 L354.0908,770.0078 C369.0908,770.0078 369.0908,713.7109 384.0908,713.7109 L394.0908,713.7109 " fill="#FFFFFF" fill-opacity="0.00000" style="stroke:#181818;stroke-width:1;"/><rect fill="#F1F1F1" height="36.2969" rx="12.5" ry="12.5" style="stroke:#181818;stroke-width:1.5;" width="168.0186" x="394.0908" y="751.8594"/><text fill="#000000" font-family="sans-serif" font-size="14" lengthAdjust="spacing" textLength="148.0186" x="404.0908" y="774.8545">Touch screen display</text><path d="M344.0908,770.0078 L354.0908,770.0078 C369.0908,770.0078 369.0908,770.0078 384.0908,770.0078 L394.0908,770.0078 " fill="#FFFFFF" fill-opacity="0.00000" style="stroke:#181818;stroke-width:1;"/><rect fill="#F1F1F1" height="36.2969" rx="12.5" ry="12.5" style="stroke:#181818;stroke-width:1.5;" width="85.7344" x="394.0908" y="808.1563"/><text fill="#000000" font-family="sans-serif" font-size="14" lengthAdjust="spacing" textLength="65.7344" x="404.0908" y="831.1514">Firmware</text><path d="M344.0908,770.0078 L354.0908,770.0078 C369.0908,770.0078 369.0908,826.3047 384.0908,826.3047 L394.0908,826.3047 " fill="#FFFFFF" fill-opacity="0.00000" style="stroke:#181818;stroke-width:1;"/><rect fill="#F1F1F1" height="36.2969" rx="12.5" ry="12.5" style="stroke:#181818;stroke-width:1.5;" width="143.2383" x="394.0908" y="864.4531"/><text fill="#000000" font-family="sans-serif" font-size="14" lengthAdjust="spacing" textLength="123.2383" x="404.0908" y="887.4482">onboard software</text><path d="M344.0908,770.0078 L354.0908,770.0078 C369.0908,770.0078 369.0908,882.6016 384.0908,882.6016 L394.0908,882.6016 " fill="#FFFFFF" fill-opacity="0.00000" style="stroke:#181818;stroke-width:1;"/><rect fill="#F1F1F1" height="36.2969" rx="12.5" ry="12.5" style="stroke:#181818;stroke-width:1.5;" width="237.4922" x="394.0908" y="920.75"/><text fill="#000000" font-family="sans-serif" font-size="14" lengthAdjust="spacing" textLength="217.4922" x="404.0908" y="943.7451">Identification (EPC, uCode, QR)</text><path d="M344.0908,770.0078 L354.0908,770.0078 C369.0908,770.0078 369.0908,938.8984 384.0908,938.8984 L394.0908,938.8984 " fill="#FFFFFF" fill-opacity="0.00000" style="stroke:#181818;stroke-width:1;"/><path d="M143.9482,601.1172 L153.9482,601.1172 C168.9482,601.1172 168.9482,770.0078 183.9482,770.0078 L193.9482,770.0078 " fill="#FFFFFF" fill-opacity="0.00000" style="stroke:#181818;stroke-width:1;"/><rect fill="#F1F1F1" height="36.2969" rx="12.5" ry="12.5" style="stroke:#181818;stroke-width:1.5;" width="223.3896" x="193.9482" y="1061.4922"/><text fill="#000000" font-family="sans-serif" font-size="14" lengthAdjust="spacing" textLength="203.3896" x="203.9482" y="1084.4873">Mechanical &amp; Electrical parts</text><rect fill="#F1F1F1" height="36.2969" rx="12.5" ry="12.5" style="stroke:#181818;stroke-width:1.5;" width="351.8643" x="467.3379" y="977.0469"/><text fill="#000000" font-family="sans-serif" font-size="14" lengthAdjust="spacing" textLength="331.8643" x="477.3379" y="1000.042">Mechanical and electrical parts (e.g., batteries)</text><path d="M417.3379,1079.6406 L427.3379,1079.6406 C442.3379,1079.6406 442.3379,995.1953 457.3379,995.1953 L467.3379,995.1953 " fill="#FFFFFF" fill-opacity="0.00000" style="stroke:#181818;stroke-width:1;"/><rect fill="#F1F1F1" height="36.2969" rx="12.5" ry="12.5" style="stroke:#181818;stroke-width:1.5;" width="419.8408" x="467.3379" y="1033.3438"/><text fill="#000000" font-family="sans-serif" font-size="14" lengthAdjust="spacing" textLength="399.8408" x="477.3379" y="1056.3389">Processing units (e.g., Microcontrollers, Microprocessors)</text><path d="M417.3379,1079.6406 L427.3379,1079.6406 C442.3379,1079.6406 442.3379,1051.4922 457.3379,1051.4922 L467.3379,1051.4922 " fill="#FFFFFF" fill-opacity="0.00000" style="stroke:#181818;stroke-width:1;"/><rect fill="#F1F1F1" height="36.2969" rx="12.5" ry="12.5" style="stroke:#181818;stroke-width:1.5;" width="236.0703" x="467.3379" y="1089.6406"/><text fill="#000000" font-family="sans-serif" font-size="14" lengthAdjust="spacing" textLength="216.0703" x="477.3379" y="1112.6357">Digital Signal Processors (DSP)</text><path d="M417.3379,1079.6406 L427.3379,1079.6406 C442.3379,1079.6406 442.3379,1107.7891 457.3379,1107.7891 L467.3379,1107.7891 " fill="#FFFFFF" fill-opacity="0.00000" style="stroke:#181818;stroke-width:1;"/><rect fill="#F1F1F1" height="36.2969" rx="12.5" ry="12.5" style="stroke:#181818;stroke-width:1.5;" width="208.0908" x="467.3379" y="1145.9375"/><text fill="#000000" font-family="sans-serif" font-size="14" lengthAdjust="spacing" textLength="188.0908" x="477.3379" y="1168.9326">Peripheral Controller Chips</text><path d="M417.3379,1079.6406 L427.3379,1079.6406 C442.3379,1079.6406 442.3379,1164.0859 457.3379,1164.0859 L467.3379,1164.0859 " fill="#FFFFFF" fill-opacity="0.00000" style="stroke:#181818;stroke-width:1;"/><path d="M143.9482,601.1172 L153.9482,601.1172 C168.9482,601.1172 168.9482,1079.6406 183.9482,1079.6406 L193.9482,1079.6406 " fill="#FFFFFF" fill-opacity="0.00000" style="stroke:#181818;stroke-width:1;"/><!--SRC=[NLB1Sjem4BtxA_RKWO7GXcaxdPmIRA3GE7KXvBwM5wD6NdaacGn_dxLD8TEJLc-Vzkq-xRqFw4AbkQYmZaQGq54hyf3O2ZL7en7yH5UyeIEe3OQzTPM08tXmHQFPTl46VKtk19dkhYiEP629HXkoi2J-WCuBxMqFp0XBGxbbWfb1zTg3pcAXRA_nHE4giZ1D2EIwE4Lt96EwE9FsjJ8qqIqFvbLEHK45sFmlgU0xpWNqnDxsDHvKQ31OrpCsYrNo-MaHGy2oHvvjemxWbIDYaAvb-bFVY7PLwqTtiPnRyGUytOSBk2g8WzvhXK5RXi4yYyVGnBQWCVpP3DisKr87P64O-0Hp8vswxbBBDBt-1mPo0VGV1mOqAITZoB5rHPCVzcuuAx_dDPVGiBxIKgqaOpauQmmvVqRgdYukzCyJNUeW4bjTiXpP9Gs3P9kT9KIkFf2JV7mf2F51rpww9zcZyov5cK4Ek_GHZYBO6d4xcNwPVflSvXHmEjZnAzit1ldjMZO5Wgve60sMsQEusJX5hUioSjwqBWwZDHuHDWstl3luNHElar__09ZpKJlBbJWVhL_IA-7xrvkP3h0bMHa7BscKq1uR4-I5ieKOTGUxvyNDZ-WHkMombDgoiR6LkkuakUqx]--></g></svg>