<svg xmlns="http://www.w3.org/2000/svg" xmlns:xlink="http://www.w3.org/1999/xlink" contentStyleType="text/css" data-diagram-type="MINDMAP" height="3343px" preserveAspectRatio="none" style="width:1142px;height:3343px;background:#FFFFFF;" version="1.1" viewBox="0 0 1142 3343" width="1142px" zoomAndPan="magnify"><defs/><g><rect fill="#F1F1F1" height="36.2969" rx="12.5" ry="12.5" style="stroke:#181818;stroke-width:1.5;" width="41.2461" x="10" y="1652.6094"/><text fill="#000000" font-family="sans-serif" font-size="14" lengthAdjust="spacing" textLength="21.2461" x="20" y="1675.6045">IoT</text><rect fill="#F1F1F1" height="36.2969" rx="12.5" ry="12.5" style="stroke:#181818;stroke-width:1.5;" width="161.7158" x="101.2461" y="188.8906"/><text fill="#000000" font-family="sans-serif" font-size="14" lengthAdjust="spacing" textLength="141.7158" x="111.2461" y="211.8857">Application Domain:</text><rect fill="#F1F1F1" height="36.2969" rx="12.5" ry="12.5" style="stroke:#181818;stroke-width:1.5;" width="106.4883" x="312.9619" y="20"/><text fill="#000000" font-family="sans-serif" font-size="14" lengthAdjust="spacing" textLength="86.4883" x="322.9619" y="42.9951">Smart home</text><path d="M262.9619,207.0391 L272.9619,207.0391 C287.9619,207.0391 287.9619,38.1484 302.9619,38.1484 L312.9619,38.1484 " fill="transparent" style="stroke:#181818;stroke-width:1;"/><rect fill="#F1F1F1" height="36.2969" rx="12.5" ry="12.5" style="stroke:#181818;stroke-width:1.5;" width="92.1602" x="312.9619" y="76.2969"/><text fill="#000000" font-family="sans-serif" font-size="14" lengthAdjust="spacing" textLength="72.1602" x="322.9619" y="99.292">Smart city</text><path d="M262.9619,207.0391 L272.9619,207.0391 C287.9619,207.0391 287.9619,94.4453 302.9619,94.4453 L312.9619,94.4453 " fill="transparent" style="stroke:#181818;stroke-width:1;"/><rect fill="#F1F1F1" height="36.2969" rx="12.5" ry="12.5" style="stroke:#181818;stroke-width:1.5;" width="220.5117" x="312.9619" y="132.5938"/><text fill="#000000" font-family="sans-serif" font-size="14" lengthAdjust="spacing" textLength="200.5117" x="322.9619" y="155.5889">Smart and digital healthcare</text><path d="M262.9619,207.0391 L272.9619,207.0391 C287.9619,207.0391 287.9619,150.7422 302.9619,150.7422 L312.9619,150.7422 " fill="transparent" style="stroke:#181818;stroke-width:1;"/><rect fill="#F1F1F1" height="36.2969" rx="12.5" ry="12.5" style="stroke:#181818;stroke-width:1.5;" width="256.4482" x="312.9619" y="188.8906"/><text fill="#000000" font-family="sans-serif" font-size="14" lengthAdjust="spacing" textLength="236.4482" x="322.9619" y="211.8857">Smart agriculture and smart farm</text><path d="M262.9619,207.0391 L272.9619,207.0391 C287.9619,207.0391 287.9619,207.0391 302.9619,207.0391 L312.9619,207.0391 " fill="transparent" style="stroke:#181818;stroke-width:1;"/><rect fill="#F1F1F1" height="36.2969" rx="12.5" ry="12.5" style="stroke:#181818;stroke-width:1.5;" width="126.8799" x="312.9619" y="245.1875"/><text fill="#000000" font-family="sans-serif" font-size="14" lengthAdjust="spacing" textLength="106.8799" x="322.9619" y="268.1826">Env monitoring</text><path d="M262.9619,207.0391 L272.9619,207.0391 C287.9619,207.0391 287.9619,263.3359 302.9619,263.3359 L312.9619,263.3359 " fill="transparent" style="stroke:#181818;stroke-width:1;"/><rect fill="#F1F1F1" height="36.2969" rx="12.5" ry="12.5" style="stroke:#181818;stroke-width:1.5;" width="73.7031" x="312.9619" y="301.4844"/><text fill="#000000" font-family="sans-serif" font-size="14" lengthAdjust="spacing" textLength="53.7031" x="322.9619" y="324.4795">RESTful</text><path d="M262.9619,207.0391 L272.9619,207.0391 C287.9619,207.0391 287.9619,319.6328 302.9619,319.6328 L312.9619,319.6328 " fill="transparent" style="stroke:#181818;stroke-width:1;"/><rect fill="#F1F1F1" height="36.2969" rx="12.5" ry="12.5" style="stroke:#181818;stroke-width:1.5;" width="172.0449" x="312.9619" y="357.7813"/><text fill="#000000" font-family="sans-serif" font-size="14" lengthAdjust="spacing" textLength="152.0449" x="322.9619" y="380.7764">Software architecture</text><path d="M262.9619,207.0391 L272.9619,207.0391 C287.9619,207.0391 287.9619,375.9297 302.9619,375.9297 L312.9619,375.9297 " fill="transparent" style="stroke:#181818;stroke-width:1;"/><path d="M51.2461,1670.7578 L61.2461,1670.7578 C76.2461,1670.7578 76.2461,207.0391 91.2461,207.0391 L101.2461,207.0391 " fill="transparent" style="stroke:#181818;stroke-width:1;"/><rect fill="#F1F1F1" height="36.2969" rx="12.5" ry="12.5" style="stroke:#181818;stroke-width:1.5;" width="168.5859" x="101.2461" y="1033.3438"/><text fill="#000000" font-family="sans-serif" font-size="14" lengthAdjust="spacing" textLength="144.1357" x="111.2461" y="1056.3389">Middleware Domain:</text><rect fill="#F1F1F1" height="36.2969" rx="12.5" ry="12.5" style="stroke:#181818;stroke-width:1.5;" width="201.3779" x="319.832" y="751.8594"/><text fill="#000000" font-family="sans-serif" font-size="14" lengthAdjust="spacing" textLength="176.9277" x="329.832" y="774.8545">Fog and Cloud platforms:</text><rect fill="#F1F1F1" height="36.2969" rx="12.5" ry="12.5" style="stroke:#181818;stroke-width:1.5;" width="78.6387" x="571.21" y="414.0781"/><text fill="#000000" font-family="sans-serif" font-size="14" lengthAdjust="spacing" textLength="58.6387" x="581.21" y="437.0732">OpenIoT</text><path d="M521.21,770.0078 L531.21,770.0078 C546.21,770.0078 546.21,432.2266 561.21,432.2266 L571.21,432.2266 " fill="transparent" style="stroke:#181818;stroke-width:1;"/><rect fill="#F1F1F1" height="36.2969" rx="12.5" ry="12.5" style="stroke:#181818;stroke-width:1.5;" width="76.5811" x="571.21" y="470.375"/><text fill="#000000" font-family="sans-serif" font-size="14" lengthAdjust="spacing" textLength="56.5811" x="581.21" y="493.3701">Amazon</text><path d="M521.21,770.0078 L531.21,770.0078 C546.21,770.0078 546.21,488.5234 561.21,488.5234 L571.21,488.5234 " fill="transparent" style="stroke:#181818;stroke-width:1;"/><rect fill="#F1F1F1" height="36.2969" rx="12.5" ry="12.5" style="stroke:#181818;stroke-width:1.5;" width="113.8096" x="571.21" y="526.6719"/><text fill="#000000" font-family="sans-serif" font-size="14" lengthAdjust="spacing" textLength="93.8096" x="581.21" y="549.667">Google Cloud</text><path d="M521.21,770.0078 L531.21,770.0078 C546.21,770.0078 546.21,544.8203 561.21,544.8203 L571.21,544.8203 " fill="transparent" style="stroke:#181818;stroke-width:1;"/><rect fill="#F1F1F1" height="36.2969" rx="12.5" ry="12.5" style="stroke:#181818;stroke-width:1.5;" width="83.3691" x="571.21" y="582.9688"/><text fill="#000000" font-family="sans-serif" font-size="14" lengthAdjust="spacing" textLength="63.3691" x="581.21" y="605.9639">Libellium</text><path d="M521.21,770.0078 L531.21,770.0078 C546.21,770.0078 546.21,601.1172 561.21,601.1172 L571.21,601.1172 " fill="transparent" style="stroke:#181818;stroke-width:1;"/><rect fill="#F1F1F1" height="36.2969" rx="12.5" ry="12.5" style="stroke:#181818;stroke-width:1.5;" width="102.9063" x="571.21" y="639.2656"/><text fill="#000000" font-family="sans-serif" font-size="14" lengthAdjust="spacing" textLength="82.9063" x="581.21" y="662.2607">IBM Watson</text><path d="M521.21,770.0078 L531.21,770.0078 C546.21,770.0078 546.21,657.4141 561.21,657.4141 L571.21,657.4141 " fill="transparent" style="stroke:#181818;stroke-width:1;"/><rect fill="#F1F1F1" height="36.2969" rx="12.5" ry="12.5" style="stroke:#181818;stroke-width:1.5;" width="74.1748" x="571.21" y="695.5625"/><text fill="#000000" font-family="sans-serif" font-size="14" lengthAdjust="spacing" textLength="54.1748" x="581.21" y="718.5576">FIWARE</text><path d="M521.21,770.0078 L531.21,770.0078 C546.21,770.0078 546.21,713.7109 561.21,713.7109 L571.21,713.7109 " fill="transparent" style="stroke:#181818;stroke-width:1;"/><rect fill="#F1F1F1" height="36.2969" rx="12.5" ry="12.5" style="stroke:#181818;stroke-width:1.5;" width="75.2207" x="571.21" y="751.8594"/><text fill="#000000" font-family="sans-serif" font-size="14" lengthAdjust="spacing" textLength="55.2207" x="581.21" y="774.8545">Arkessa</text><path d="M521.21,770.0078 L531.21,770.0078 C546.21,770.0078 546.21,770.0078 561.21,770.0078 L571.21,770.0078 " fill="transparent" style="stroke:#181818;stroke-width:1;"/><rect fill="#F1F1F1" height="36.2969" rx="12.5" ry="12.5" style="stroke:#181818;stroke-width:1.5;" width="107.7939" x="571.21" y="808.1563"/><text fill="#000000" font-family="sans-serif" font-size="14" lengthAdjust="spacing" textLength="87.7939" x="581.21" y="831.1514">OnePlatform</text><path d="M521.21,770.0078 L531.21,770.0078 C546.21,770.0078 546.21,826.3047 561.21,826.3047 L571.21,826.3047 " fill="transparent" style="stroke:#181818;stroke-width:1;"/><rect fill="#F1F1F1" height="36.2969" rx="12.5" ry="12.5" style="stroke:#181818;stroke-width:1.5;" width="107.9785" x="571.21" y="864.4531"/><text fill="#000000" font-family="sans-serif" font-size="14" lengthAdjust="spacing" textLength="87.9785" x="581.21" y="887.4482">SensorCloud</text><path d="M521.21,770.0078 L531.21,770.0078 C546.21,770.0078 546.21,882.6016 561.21,882.6016 L571.21,882.6016 " fill="transparent" style="stroke:#181818;stroke-width:1;"/><rect fill="#F1F1F1" height="36.2969" rx="12.5" ry="12.5" style="stroke:#181818;stroke-width:1.5;" width="108.7168" x="571.21" y="920.75"/><text fill="#000000" font-family="sans-serif" font-size="14" lengthAdjust="spacing" textLength="88.7168" x="581.21" y="943.7451">SmartThings</text><path d="M521.21,770.0078 L531.21,770.0078 C546.21,770.0078 546.21,938.8984 561.21,938.8984 L571.21,938.8984 " fill="transparent" style="stroke:#181818;stroke-width:1;"/><rect fill="#F1F1F1" height="36.2969" rx="12.5" ry="12.5" style="stroke:#181818;stroke-width:1.5;" width="91.251" x="571.21" y="977.0469"/><text fill="#000000" font-family="sans-serif" font-size="14" lengthAdjust="spacing" textLength="71.251" x="581.21" y="1000.042">Oracle IoT</text><path d="M521.21,770.0078 L531.21,770.0078 C546.21,770.0078 546.21,995.1953 561.21,995.1953 L571.21,995.1953 " fill="transparent" style="stroke:#181818;stroke-width:1;"/><rect fill="#F1F1F1" height="36.2969" rx="12.5" ry="12.5" style="stroke:#181818;stroke-width:1.5;" width="73.5596" x="571.21" y="1033.3438"/><text fill="#000000" font-family="sans-serif" font-size="14" lengthAdjust="spacing" textLength="53.5596" x="581.21" y="1056.3389">Nimbits</text><path d="M521.21,770.0078 L531.21,770.0078 C546.21,770.0078 546.21,1051.4922 561.21,1051.4922 L571.21,1051.4922 " fill="transparent" style="stroke:#181818;stroke-width:1;"/><rect fill="#F1F1F1" height="36.2969" rx="12.5" ry="12.5" style="stroke:#181818;stroke-width:1.5;" width="76.1914" x="571.21" y="1089.6406"/><text fill="#000000" font-family="sans-serif" font-size="14" lengthAdjust="spacing" textLength="56.1914" x="581.21" y="1112.6357">Xivelym</text><path d="M521.21,770.0078 L531.21,770.0078 C546.21,770.0078 546.21,1107.7891 561.21,1107.7891 L571.21,1107.7891 " fill="transparent" style="stroke:#181818;stroke-width:1;"/><path d="M269.832,1051.4922 L279.832,1051.4922 C294.832,1051.4922 294.832,770.0078 309.832,770.0078 L319.832,770.0078 " fill="transparent" style="stroke:#181818;stroke-width:1;"/><rect fill="#F1F1F1" height="36.2969" rx="12.5" ry="12.5" style="stroke:#181818;stroke-width:1.5;" width="219.1787" x="319.832" y="1342.9766"/><text fill="#000000" font-family="sans-serif" font-size="14" lengthAdjust="spacing" textLength="199.1787" x="329.832" y="1365.9717">Data processing mechanism</text><rect fill="#F1F1F1" height="36.2969" rx="12.5" ry="12.5" style="stroke:#181818;stroke-width:1.5;" width="105.9277" x="589.0107" y="1145.9375"/><text fill="#000000" font-family="sans-serif" font-size="14" lengthAdjust="spacing" textLength="85.9277" x="599.0107" y="1168.9326">Data mining</text><path d="M539.0107,1361.125 L549.0107,1361.125 C564.0107,1361.125 564.0107,1164.0859 579.0107,1164.0859 L589.0107,1164.0859 " fill="transparent" style="stroke:#181818;stroke-width:1;"/><rect fill="#F1F1F1" height="36.2969" rx="12.5" ry="12.5" style="stroke:#181818;stroke-width:1.5;" width="87.2451" x="589.0107" y="1202.2344"/><text fill="#000000" font-family="sans-serif" font-size="14" lengthAdjust="spacing" textLength="67.2451" x="599.0107" y="1225.2295">Big query</text><path d="M539.0107,1361.125 L549.0107,1361.125 C564.0107,1361.125 564.0107,1220.3828 579.0107,1220.3828 L589.0107,1220.3828 " fill="transparent" style="stroke:#181818;stroke-width:1;"/><rect fill="#F1F1F1" height="36.2969" rx="12.5" ry="12.5" style="stroke:#181818;stroke-width:1.5;" width="119.2236" x="589.0107" y="1258.5313"/><text fill="#000000" font-family="sans-serif" font-size="14" lengthAdjust="spacing" textLength="99.2236" x="599.0107" y="1281.5264">Cloud Datalab</text><path d="M539.0107,1361.125 L549.0107,1361.125 C564.0107,1361.125 564.0107,1276.6797 579.0107,1276.6797 L589.0107,1276.6797 " fill="transparent" style="stroke:#181818;stroke-width:1;"/><rect fill="#F1F1F1" height="36.2969" rx="12.5" ry="12.5" style="stroke:#181818;stroke-width:1.5;" width="130.6875" x="589.0107" y="1314.8281"/><text fill="#000000" font-family="sans-serif" font-size="14" lengthAdjust="spacing" textLength="110.6875" x="599.0107" y="1337.8232">Apache Hadoop</text><path d="M539.0107,1361.125 L549.0107,1361.125 C564.0107,1361.125 564.0107,1332.9766 579.0107,1332.9766 L589.0107,1332.9766 " fill="transparent" style="stroke:#181818;stroke-width:1;"/><rect fill="#F1F1F1" height="36.2969" rx="12.5" ry="12.5" style="stroke:#181818;stroke-width:1.5;" width="59.375" x="589.0107" y="1371.125"/><text fill="#000000" font-family="sans-serif" font-size="14" lengthAdjust="spacing" textLength="39.375" x="599.0107" y="1394.1201">Kafka</text><path d="M539.0107,1361.125 L549.0107,1361.125 C564.0107,1361.125 564.0107,1389.2734 579.0107,1389.2734 L589.0107,1389.2734 " fill="transparent" style="stroke:#181818;stroke-width:1;"/><rect fill="#F1F1F1" height="36.2969" rx="12.5" ry="12.5" style="stroke:#181818;stroke-width:1.5;" width="62.335" x="589.0107" y="1427.4219"/><text fill="#000000" font-family="sans-serif" font-size="14" lengthAdjust="spacing" textLength="42.335" x="599.0107" y="1450.417">Storm</text><path d="M539.0107,1361.125 L549.0107,1361.125 C564.0107,1361.125 564.0107,1445.5703 579.0107,1445.5703 L589.0107,1445.5703 " fill="transparent" style="stroke:#181818;stroke-width:1;"/><rect fill="#F1F1F1" height="36.2969" rx="12.5" ry="12.5" style="stroke:#181818;stroke-width:1.5;" width="83.0684" x="589.0107" y="1483.7188"/><text fill="#000000" font-family="sans-serif" font-size="14" lengthAdjust="spacing" textLength="63.0684" x="599.0107" y="1506.7139">RapidMQ</text><path d="M539.0107,1361.125 L549.0107,1361.125 C564.0107,1361.125 564.0107,1501.8672 579.0107,1501.8672 L589.0107,1501.8672 " fill="transparent" style="stroke:#181818;stroke-width:1;"/><rect fill="#F1F1F1" height="36.2969" rx="12.5" ry="12.5" style="stroke:#181818;stroke-width:1.5;" width="75.4531" x="589.0107" y="1540.0156"/><text fill="#000000" font-family="sans-serif" font-size="14" lengthAdjust="spacing" textLength="55.4531" x="599.0107" y="1563.0107">SPARQL</text><path d="M539.0107,1361.125 L549.0107,1361.125 C564.0107,1361.125 564.0107,1558.1641 579.0107,1558.1641 L589.0107,1558.1641 " fill="transparent" style="stroke:#181818;stroke-width:1;"/><path d="M269.832,1051.4922 L279.832,1051.4922 C294.832,1051.4922 294.832,1361.125 309.832,1361.125 L319.832,1361.125 " fill="transparent" style="stroke:#181818;stroke-width:1;"/><rect fill="#F1F1F1" height="36.2969" rx="12.5" ry="12.5" style="stroke:#181818;stroke-width:1.5;" width="112.6543" x="319.832" y="1624.4609"/><text fill="#000000" font-family="sans-serif" font-size="14" lengthAdjust="spacing" textLength="92.6543" x="329.832" y="1647.4561">Data Storage</text><rect fill="#F1F1F1" height="36.2969" rx="12.5" ry="12.5" style="stroke:#181818;stroke-width:1.5;" width="344.4678" x="482.4863" y="1596.3125"/><text fill="#000000" font-family="sans-serif" font-size="14" lengthAdjust="spacing" textLength="324.4678" x="492.4863" y="1619.3076">Storage infrastructure (public, private, hybrid)</text><path d="M432.4863,1642.6094 L442.4863,1642.6094 C457.4863,1642.6094 457.4863,1614.4609 472.4863,1614.4609 L482.4863,1614.4609 " fill="transparent" style="stroke:#181818;stroke-width:1;"/><rect fill="#F1F1F1" height="36.2969" rx="12.5" ry="12.5" style="stroke:#181818;stroke-width:1.5;" width="442.7617" x="482.4863" y="1652.6094"/><text fill="#000000" font-family="sans-serif" font-size="14" lengthAdjust="spacing" textLength="422.7617" x="492.4863" y="1675.6045">DB (MongoDB, Cassandra, Haddop, HBase, CouchDB, Redis)</text><path d="M432.4863,1642.6094 L442.4863,1642.6094 C457.4863,1642.6094 457.4863,1670.7578 472.4863,1670.7578 L482.4863,1670.7578 " fill="transparent" style="stroke:#181818;stroke-width:1;"/><path d="M269.832,1051.4922 L279.832,1051.4922 C294.832,1051.4922 294.832,1642.6094 309.832,1642.6094 L319.832,1642.6094 " fill="transparent" style="stroke:#181818;stroke-width:1;"/><path d="M51.2461,1670.7578 L61.2461,1670.7578 C76.2461,1670.7578 76.2461,1051.4922 91.2461,1051.4922 L101.2461,1051.4922 " fill="transparent" style="stroke:#181818;stroke-width:1;"/><rect fill="#F1F1F1" height="36.2969" rx="12.5" ry="12.5" style="stroke:#181818;stroke-width:1.5;" width="158.8789" x="101.2461" y="1905.9453"/><text fill="#000000" font-family="sans-serif" font-size="14" lengthAdjust="spacing" textLength="138.8789" x="111.2461" y="1928.9404">Networking Domain</text><rect fill="#F1F1F1" height="36.2969" rx="12.5" ry="12.5" style="stroke:#181818;stroke-width:1.5;" width="199.5049" x="310.125" y="1821.5"/><text fill="#000000" font-family="sans-serif" font-size="14" lengthAdjust="spacing" textLength="179.5049" x="320.125" y="1844.4951">Communication protocols</text><rect fill="#F1F1F1" height="36.2969" rx="12.5" ry="12.5" style="stroke:#181818;stroke-width:1.5;" width="423.4844" x="559.6299" y="1708.9063"/><text fill="#000000" font-family="sans-serif" font-size="14" lengthAdjust="spacing" textLength="403.4844" x="569.6299" y="1731.9014">Application (CoAP, MQTT, AMQP, DDS, WebSocket, XMPP)</text><path d="M509.6299,1839.6484 L519.6299,1839.6484 C534.6299,1839.6484 534.6299,1727.0547 549.6299,1727.0547 L559.6299,1727.0547 " fill="transparent" style="stroke:#181818;stroke-width:1;"/><rect fill="#F1F1F1" height="36.2969" rx="12.5" ry="12.5" style="stroke:#181818;stroke-width:1.5;" width="168.2646" x="559.6299" y="1765.2031"/><text fill="#000000" font-family="sans-serif" font-size="14" lengthAdjust="spacing" textLength="148.2646" x="569.6299" y="1788.1982">Transport (TCP, UDP)</text><path d="M509.6299,1839.6484 L519.6299,1839.6484 C534.6299,1839.6484 534.6299,1783.3516 549.6299,1783.3516 L559.6299,1783.3516 " fill="transparent" style="stroke:#181818;stroke-width:1;"/><rect fill="#F1F1F1" height="36.2969" rx="12.5" ry="12.5" style="stroke:#181818;stroke-width:1.5;" width="162.2559" x="559.6299" y="1821.5"/><text fill="#000000" font-family="sans-serif" font-size="14" lengthAdjust="spacing" textLength="142.2559" x="569.6299" y="1844.4951">Network (IPv4, IPv6)</text><path d="M509.6299,1839.6484 L519.6299,1839.6484 C534.6299,1839.6484 534.6299,1839.6484 549.6299,1839.6484 L559.6299,1839.6484 " fill="transparent" style="stroke:#181818;stroke-width:1;"/><rect fill="#F1F1F1" height="36.2969" rx="12.5" ry="12.5" style="stroke:#181818;stroke-width:1.5;" width="120.0986" x="559.6299" y="1877.7969"/><text fill="#000000" font-family="sans-serif" font-size="14" lengthAdjust="spacing" textLength="100.0986" x="569.6299" y="1900.792">Routing (RPL),</text><path d="M509.6299,1839.6484 L519.6299,1839.6484 C534.6299,1839.6484 534.6299,1895.9453 549.6299,1895.9453 L559.6299,1895.9453 " fill="transparent" style="stroke:#181818;stroke-width:1;"/><rect fill="#F1F1F1" height="36.2969" rx="12.5" ry="12.5" style="stroke:#181818;stroke-width:1.5;" width="337.8574" x="559.6299" y="1934.0938"/><text fill="#000000" font-family="sans-serif" font-size="14" lengthAdjust="spacing" textLength="317.8574" x="569.6299" y="1957.0889">Service discovery (mDNS, DNS-SD, SSD, SLP)</text><path d="M509.6299,1839.6484 L519.6299,1839.6484 C534.6299,1839.6484 534.6299,1952.2422 549.6299,1952.2422 L559.6299,1952.2422 " fill="transparent" style="stroke:#181818;stroke-width:1;"/><path d="M260.125,1924.0938 L270.125,1924.0938 C285.125,1924.0938 285.125,1839.6484 300.125,1839.6484 L310.125,1839.6484 " fill="transparent" style="stroke:#181818;stroke-width:1;"/><rect fill="#F1F1F1" height="36.2969" rx="12.5" ry="12.5" style="stroke:#181818;stroke-width:1.5;" width="175.5723" x="310.125" y="2046.6875"/><text fill="#000000" font-family="sans-serif" font-size="14" lengthAdjust="spacing" textLength="155.5723" x="320.125" y="2069.6826">Adoption mechanisms</text><rect fill="#F1F1F1" height="36.2969" rx="12.5" ry="12.5" style="stroke:#181818;stroke-width:1.5;" width="264.7266" x="535.6973" y="1990.3906"/><text fill="#000000" font-family="sans-serif" font-size="14" lengthAdjust="spacing" textLength="244.7266" x="545.6973" y="2013.3857">Adoption layer (6LoWPAN, 6TiSCH)</text><path d="M485.6973,2064.8359 L495.6973,2064.8359 C510.6973,2064.8359 510.6973,2008.5391 525.6973,2008.5391 L535.6973,2008.5391 " fill="transparent" style="stroke:#181818;stroke-width:1;"/><rect fill="#F1F1F1" height="36.2969" rx="12.5" ry="12.5" style="stroke:#181818;stroke-width:1.5;" width="594.8545" x="535.6973" y="2046.6875"/><text fill="#000000" font-family="sans-serif" font-size="14" lengthAdjust="spacing" textLength="574.8545" x="545.6973" y="2069.6826">Connectivity interfaces (RJ45, ODB2, RS-232, RS-485, PLC, Modbus, SPI, I2C, USB)</text><path d="M485.6973,2064.8359 L495.6973,2064.8359 C510.6973,2064.8359 510.6973,2064.8359 525.6973,2064.8359 L535.6973,2064.8359 " fill="transparent" style="stroke:#181818;stroke-width:1;"/><rect fill="#F1F1F1" height="36.2969" rx="12.5" ry="12.5" style="stroke:#181818;stroke-width:1.5;" width="278.2344" x="535.6973" y="2102.9844"/><text fill="#000000" font-family="sans-serif" font-size="14" lengthAdjust="spacing" textLength="258.2344" x="545.6973" y="2125.9795">Gateways (Advantech, ADLINK, BRC)</text><path d="M485.6973,2064.8359 L495.6973,2064.8359 C510.6973,2064.8359 510.6973,2121.1328 525.6973,2121.1328 L535.6973,2121.1328 " fill="transparent" style="stroke:#181818;stroke-width:1;"/><path d="M260.125,1924.0938 L270.125,1924.0938 C285.125,1924.0938 285.125,2064.8359 300.125,2064.8359 L310.125,2064.8359 " fill="transparent" style="stroke:#181818;stroke-width:1;"/><path d="M51.2461,1670.7578 L61.2461,1670.7578 C76.2461,1670.7578 76.2461,1924.0938 91.2461,1924.0938 L101.2461,1924.0938 " fill="transparent" style="stroke:#181818;stroke-width:1;"/><rect fill="#F1F1F1" height="36.2969" rx="12.5" ry="12.5" style="stroke:#181818;stroke-width:1.5;" width="133.9482" x="101.2461" y="2722.25"/><text fill="#000000" font-family="sans-serif" font-size="14" lengthAdjust="spacing" textLength="113.9482" x="111.2461" y="2745.2451">Devices Domain</text><rect fill="#F1F1F1" height="36.2969" rx="12.5" ry="12.5" style="stroke:#181818;stroke-width:1.5;" width="152.3301" x="285.1943" y="2412.6172"/><text fill="#000000" font-family="sans-serif" font-size="14" lengthAdjust="spacing" textLength="132.3301" x="295.1943" y="2435.6123">Hardware platform</text><rect fill="#F1F1F1" height="36.2969" rx="12.5" ry="12.5" style="stroke:#181818;stroke-width:1.5;" width="74.4209" x="487.5244" y="2159.2813"/><text fill="#000000" font-family="sans-serif" font-size="14" lengthAdjust="spacing" textLength="54.4209" x="497.5244" y="2182.2764">Arduino</text><path d="M437.5244,2430.7656 L447.5244,2430.7656 C462.5244,2430.7656 462.5244,2177.4297 477.5244,2177.4297 L487.5244,2177.4297 " fill="transparent" style="stroke:#181818;stroke-width:1;"/><rect fill="#F1F1F1" height="36.2969" rx="12.5" ry="12.5" style="stroke:#181818;stroke-width:1.5;" width="93.9238" x="487.5244" y="2215.5781"/><text fill="#000000" font-family="sans-serif" font-size="14" lengthAdjust="spacing" textLength="73.9238" x="497.5244" y="2238.5732">Raspery Pi</text><path d="M437.5244,2430.7656 L447.5244,2430.7656 C462.5244,2430.7656 462.5244,2233.7266 477.5244,2233.7266 L487.5244,2233.7266 " fill="transparent" style="stroke:#181818;stroke-width:1;"/><rect fill="#F1F1F1" height="36.2969" rx="12.5" ry="12.5" style="stroke:#181818;stroke-width:1.5;" width="136.5049" x="487.5244" y="2271.875"/><text fill="#000000" font-family="sans-serif" font-size="14" lengthAdjust="spacing" textLength="116.5049" x="497.5244" y="2294.8701">Intel Galileo Gen</text><path d="M437.5244,2430.7656 L447.5244,2430.7656 C462.5244,2430.7656 462.5244,2290.0234 477.5244,2290.0234 L487.5244,2290.0234 " fill="transparent" style="stroke:#181818;stroke-width:1;"/><rect fill="#F1F1F1" height="36.2969" rx="12.5" ry="12.5" style="stroke:#181818;stroke-width:1.5;" width="101.7988" x="487.5244" y="2328.1719"/><text fill="#000000" font-family="sans-serif" font-size="14" lengthAdjust="spacing" textLength="81.7988" x="497.5244" y="2351.167">Intel Edison</text><path d="M437.5244,2430.7656 L447.5244,2430.7656 C462.5244,2430.7656 462.5244,2346.3203 477.5244,2346.3203 L487.5244,2346.3203 " fill="transparent" style="stroke:#181818;stroke-width:1;"/><rect fill="#F1F1F1" height="36.2969" rx="12.5" ry="12.5" style="stroke:#181818;stroke-width:1.5;" width="145.4531" x="487.5244" y="2384.4688"/><text fill="#000000" font-family="sans-serif" font-size="14" lengthAdjust="spacing" textLength="125.4531" x="497.5244" y="2407.4639">Beaglebone Black</text><path d="M437.5244,2430.7656 L447.5244,2430.7656 C462.5244,2430.7656 462.5244,2402.6172 477.5244,2402.6172 L487.5244,2402.6172 " fill="transparent" style="stroke:#181818;stroke-width:1;"/><rect fill="#F1F1F1" height="36.2969" rx="12.5" ry="12.5" style="stroke:#181818;stroke-width:1.5;" width="91.292" x="487.5244" y="2440.7656"/><text fill="#000000" font-family="sans-serif" font-size="14" lengthAdjust="spacing" textLength="71.292" x="497.5244" y="2463.7607">Broadcom</text><path d="M437.5244,2430.7656 L447.5244,2430.7656 C462.5244,2430.7656 462.5244,2458.9141 477.5244,2458.9141 L487.5244,2458.9141 " fill="transparent" style="stroke:#181818;stroke-width:1;"/><rect fill="#F1F1F1" height="36.2969" rx="12.5" ry="12.5" style="stroke:#181818;stroke-width:1.5;" width="83.6631" x="487.5244" y="2497.0625"/><text fill="#000000" font-family="sans-serif" font-size="14" lengthAdjust="spacing" textLength="63.6631" x="497.5244" y="2520.0576">Netduino</text><path d="M437.5244,2430.7656 L447.5244,2430.7656 C462.5244,2430.7656 462.5244,2515.2109 477.5244,2515.2109 L487.5244,2515.2109 " fill="transparent" style="stroke:#181818;stroke-width:1;"/><rect fill="#F1F1F1" height="36.2969" rx="12.5" ry="12.5" style="stroke:#181818;stroke-width:1.5;" width="66.1631" x="487.5244" y="2553.3594"/><text fill="#000000" font-family="sans-serif" font-size="14" lengthAdjust="spacing" textLength="46.1631" x="497.5244" y="2576.3545">Flutter</text><path d="M437.5244,2430.7656 L447.5244,2430.7656 C462.5244,2430.7656 462.5244,2571.5078 477.5244,2571.5078 L487.5244,2571.5078 " fill="transparent" style="stroke:#181818;stroke-width:1;"/><rect fill="#F1F1F1" height="36.2969" rx="12.5" ry="12.5" style="stroke:#181818;stroke-width:1.5;" width="71.0918" x="487.5244" y="2609.6563"/><text fill="#000000" font-family="sans-serif" font-size="14" lengthAdjust="spacing" textLength="51.0918" x="497.5244" y="2632.6514">Marvell</text><path d="M437.5244,2430.7656 L447.5244,2430.7656 C462.5244,2430.7656 462.5244,2627.8047 477.5244,2627.8047 L487.5244,2627.8047 " fill="transparent" style="stroke:#181818;stroke-width:1;"/><rect fill="#F1F1F1" height="36.2969" rx="12.5" ry="12.5" style="stroke:#181818;stroke-width:1.5;" width="89.2617" x="487.5244" y="2665.9531"/><text fill="#000000" font-family="sans-serif" font-size="14" lengthAdjust="spacing" textLength="69.2617" x="497.5244" y="2688.9482">Particle.io</text><path d="M437.5244,2430.7656 L447.5244,2430.7656 C462.5244,2430.7656 462.5244,2684.1016 477.5244,2684.1016 L487.5244,2684.1016 " fill="transparent" style="stroke:#181818;stroke-width:1;"/><path d="M235.1943,2740.3984 L245.1943,2740.3984 C260.1943,2740.3984 260.1943,2430.7656 275.1943,2430.7656 L285.1943,2430.7656 " fill="transparent" style="stroke:#181818;stroke-width:1;"/><rect fill="#F1F1F1" height="36.2969" rx="12.5" ry="12.5" style="stroke:#181818;stroke-width:1.5;" width="150.1426" x="285.1943" y="2891.1406"/><text fill="#000000" font-family="sans-serif" font-size="14" lengthAdjust="spacing" textLength="130.1426" x="295.1943" y="2914.1357">Embedded objects</text><rect fill="#F1F1F1" height="36.2969" rx="12.5" ry="12.5" style="stroke:#181818;stroke-width:1.5;" width="146.1025" x="485.3369" y="2722.25"/><text fill="#000000" font-family="sans-serif" font-size="14" lengthAdjust="spacing" textLength="126.1025" x="495.3369" y="2745.2451">Embedded sensor</text><path d="M435.3369,2909.2891 L445.3369,2909.2891 C460.3369,2909.2891 460.3369,2740.3984 475.3369,2740.3984 L485.3369,2740.3984 " fill="transparent" style="stroke:#181818;stroke-width:1;"/><rect fill="#F1F1F1" height="36.2969" rx="12.5" ry="12.5" style="stroke:#181818;stroke-width:1.5;" width="87.3203" x="485.3369" y="2778.5469"/><text fill="#000000" font-family="sans-serif" font-size="14" lengthAdjust="spacing" textLength="67.3203" x="495.3369" y="2801.542">Actuators</text><path d="M435.3369,2909.2891 L445.3369,2909.2891 C460.3369,2909.2891 460.3369,2796.6953 475.3369,2796.6953 L485.3369,2796.6953 " fill="transparent" style="stroke:#181818;stroke-width:1;"/><rect fill="#F1F1F1" height="36.2969" rx="12.5" ry="12.5" style="stroke:#181818;stroke-width:1.5;" width="120.4063" x="485.3369" y="2834.8438"/><text fill="#000000" font-family="sans-serif" font-size="14" lengthAdjust="spacing" textLength="100.4063" x="495.3369" y="2857.8389">RFID/NFC tags</text><path d="M435.3369,2909.2891 L445.3369,2909.2891 C460.3369,2909.2891 460.3369,2852.9922 475.3369,2852.9922 L485.3369,2852.9922 " fill="transparent" style="stroke:#181818;stroke-width:1;"/><rect fill="#F1F1F1" height="36.2969" rx="12.5" ry="12.5" style="stroke:#181818;stroke-width:1.5;" width="168.0186" x="485.3369" y="2891.1406"/><text fill="#000000" font-family="sans-serif" font-size="14" lengthAdjust="spacing" textLength="148.0186" x="495.3369" y="2914.1357">Touch screen display</text><path d="M435.3369,2909.2891 L445.3369,2909.2891 C460.3369,2909.2891 460.3369,2909.2891 475.3369,2909.2891 L485.3369,2909.2891 " fill="transparent" style="stroke:#181818;stroke-width:1;"/><rect fill="#F1F1F1" height="36.2969" rx="12.5" ry="12.5" style="stroke:#181818;stroke-width:1.5;" width="85.7344" x="485.3369" y="2947.4375"/><text fill="#000000" font-family="sans-serif" font-size="14" lengthAdjust="spacing" textLength="65.7344" x="495.3369" y="2970.4326">Firmware</text><path d="M435.3369,2909.2891 L445.3369,2909.2891 C460.3369,2909.2891 460.3369,2965.5859 475.3369,2965.5859 L485.3369,2965.5859 " fill="transparent" style="stroke:#181818;stroke-width:1;"/><rect fill="#F1F1F1" height="36.2969" rx="12.5" ry="12.5" style="stroke:#181818;stroke-width:1.5;" width="143.2383" x="485.3369" y="3003.7344"/><text fill="#000000" font-family="sans-serif" font-size="14" lengthAdjust="spacing" textLength="123.2383" x="495.3369" y="3026.7295">onboard software</text><path d="M435.3369,2909.2891 L445.3369,2909.2891 C460.3369,2909.2891 460.3369,3021.8828 475.3369,3021.8828 L485.3369,3021.8828 " fill="transparent" style="stroke:#181818;stroke-width:1;"/><rect fill="#F1F1F1" height="36.2969" rx="12.5" ry="12.5" style="stroke:#181818;stroke-width:1.5;" width="237.4922" x="485.3369" y="3060.0313"/><text fill="#000000" font-family="sans-serif" font-size="14" lengthAdjust="spacing" textLength="217.4922" x="495.3369" y="3083.0264">Identification (EPC, uCode, QR)</text><path d="M435.3369,2909.2891 L445.3369,2909.2891 C460.3369,2909.2891 460.3369,3078.1797 475.3369,3078.1797 L485.3369,3078.1797 " fill="transparent" style="stroke:#181818;stroke-width:1;"/><path d="M235.1943,2740.3984 L245.1943,2740.3984 C260.1943,2740.3984 260.1943,2909.2891 275.1943,2909.2891 L285.1943,2909.2891 " fill="transparent" style="stroke:#181818;stroke-width:1;"/><rect fill="#F1F1F1" height="36.2969" rx="12.5" ry="12.5" style="stroke:#181818;stroke-width:1.5;" width="223.3896" x="285.1943" y="3200.7734"/><text fill="#000000" font-family="sans-serif" font-size="14" lengthAdjust="spacing" textLength="203.3896" x="295.1943" y="3223.7686">Mechanical &amp; Electrical parts</text><rect fill="#F1F1F1" height="36.2969" rx="12.5" ry="12.5" style="stroke:#181818;stroke-width:1.5;" width="351.8643" x="558.584" y="3116.3281"/><text fill="#000000" font-family="sans-serif" font-size="14" lengthAdjust="spacing" textLength="331.8643" x="568.584" y="3139.3232">Mechanical and electrical parts (e.g., batteries)</text><path d="M508.584,3218.9219 L518.584,3218.9219 C533.584,3218.9219 533.584,3134.4766 548.584,3134.4766 L558.584,3134.4766 " fill="transparent" style="stroke:#181818;stroke-width:1;"/><rect fill="#F1F1F1" height="36.2969" rx="12.5" ry="12.5" style="stroke:#181818;stroke-width:1.5;" width="419.8408" x="558.584" y="3172.625"/><text fill="#000000" font-family="sans-serif" font-size="14" lengthAdjust="spacing" textLength="399.8408" x="568.584" y="3195.6201">Processing units (e.g., Microcontrollers, Microprocessors)</text><path d="M508.584,3218.9219 L518.584,3218.9219 C533.584,3218.9219 533.584,3190.7734 548.584,3190.7734 L558.584,3190.7734 " fill="transparent" style="stroke:#181818;stroke-width:1;"/><rect fill="#F1F1F1" height="36.2969" rx="12.5" ry="12.5" style="stroke:#181818;stroke-width:1.5;" width="236.0703" x="558.584" y="3228.9219"/><text fill="#000000" font-family="sans-serif" font-size="14" lengthAdjust="spacing" textLength="216.0703" x="568.584" y="3251.917">Digital Signal Processors (DSP)</text><path d="M508.584,3218.9219 L518.584,3218.9219 C533.584,3218.9219 533.584,3247.0703 548.584,3247.0703 L558.584,3247.0703 " fill="transparent" style="stroke:#181818;stroke-width:1;"/><rect fill="#F1F1F1" height="36.2969" rx="12.5" ry="12.5" style="stroke:#181818;stroke-width:1.5;" width="208.0908" x="558.584" y="3285.2188"/><text fill="#000000" font-family="sans-serif" font-size="14" lengthAdjust="spacing" textLength="188.0908" x="568.584" y="3308.2139">Peripheral Controller Chips</text><path d="M508.584,3218.9219 L518.584,3218.9219 C533.584,3218.9219 533.584,3303.3672 548.584,3303.3672 L558.584,3303.3672 " fill="transparent" style="stroke:#181818;stroke-width:1;"/><path d="M235.1943,2740.3984 L245.1943,2740.3984 C260.1943,2740.3984 260.1943,3218.9219 275.1943,3218.9219 L285.1943,3218.9219 " fill="transparent" style="stroke:#181818;stroke-width:1;"/><path d="M51.2461,1670.7578 L61.2461,1670.7578 C76.2461,1670.7578 76.2461,2740.3984 91.2461,2740.3984 L101.2461,2740.3984 " fill="transparent" style="stroke:#181818;stroke-width:1;"/><!--SRC=[NLLTT-8u37tdL-XfJtf8kzjkfsTEdmOIQEaG9YLqEgzAOi1RnyhQ3ZtihrybSO3T5uBrOKbNkl8twz2uIkgomdeqXWLjHkCnJEfQoGAT90qnLIZr8ul7a5Li3NkgnCMnaEvuSKHTGYbtqg62lK3bzWMQItlS6LaqoZL6TCQsasxHL9tHJ1-W8YqT6QbtdMWzopRRHlLtqDPzOkjgYhrqecZlQNDEP5agqQbyoj0vp6dNXOaKDINK2jsMJ6LxxHX-r4BtLRTrL_WFwVx_4z5EYTwjbonbBfIIJTKV5zC4tj7PmM6-U9-iP_uYyo6iHHz2YzI7xGMPq9RCnSqTC9izrskzYy62WvyIMyagbyuhVyc3KCSUhHWTGcseu73i3fKezgYbzP4wDRVN8pc6gTp1tuqmn_xOWz9QASnzwZKMUm7FM1BLlUWxRZzyBPaxLR76MfR9gvUda_NhyfnIQuSxSNRY0qYzDMYTQRgcGL0tEOzPoFdB0peHmlwO6rbU-Tod42IaTnHFGuYGuTIbmR3DhAIQlrEqx1DHK-nRaxKefMrzOINS9vcF5ez-5Bgy8gggHWzZpPWvAaZPeUhpn0SHJT8GajVD9eH9yih_upWBuLta6HKVmeNmAqbJd-R6eBOryGW7cuXDt-91uzE0O94UxaFWtmUlMLFZsko2TRgy2eUXC0TP2EQEBUZ07OAWYbSSbd-kipY4hFjPzhV3X37eiZrrVAXaK2Wy2WF1mvBUqyagX8UDpA9ddq54MZDtv879otrnmcoHPuWpUhd_4iAFU7h7Y6RNTt_st_klB4sN4SD2PTvOpYHTS4rtB7dBflxM9-xY9nxvcabvGBwrs3E2yNAn-Xx2T1rrtOb5MwUzRCqpch9ZRlqVdanCsKXDmxZPkaKbbPv-VBtYY4egGV0azALunYWEl9mAP2Bdf0LC5HOVNce8ouAgKwikGirLunYH_f2WORgf_f0oJoKpyqPIlwogN9IbA87olnXEtuAJr7P4zyNmq2CJmTkivuluzzKy0eS3wJVj98CjZ12w7GC6mzDqBatrwRVe64Zdn821zQlG5ruAxUJsDCIpb5lJH5GoHrxN_T0a_QmKl9f_WvdYZ4rtgBaidyI5IRirnV-C810tkviGScmHaiBwpgVd5SGSEzibic0DQMT8AM6ib_YDnMWCPFSlHYPtcZ_fIGz1d0s4IZbYlHU63QBJbH3jPMr7tmI_OVuT6_6wrUujMGBpoBPetDxS_N7tvUOs5mvlWpVzeUbJ0xU_vka19ojnDGgUqYLZsfYUX5nrthHGNerUy82mRdHhzzYz62_nzq7GFbZIaAuO_j7Bp-Hiy71_FPMk8pQd-JCPnMAB_F2nHq4bG_K8RvlvzTVH4lMkuGNv23p5lC-uj2Fhidy1]--></g></svg>